<svg xmlns="http://www.w3.org/2000/svg" width="150.869" height="75.789"><path fill="#3b82f6" d="M16.398 0h7.573v24.952q0 7.79-3.214 10.978-3.214 3.187-9.316 3.187-3.923 0-6.565-1.035Q2.234 37.046 0 34.812l4.25-4.63q.926.926 2.805 1.553 1.88.626 4.304.626 2.424 0 3.732-1.171 1.307-1.172 1.307-4.386V0zm43.693 27.621q0 5.394-2.914 8.281-2.915 2.888-8.145 2.888h-5.23q-6.429 0-9.125-2.234-2.697-2.234-2.697-7.736V0h16.398q5.557 0 8.363 2.778 2.806 2.779 2.806 7.846 0 2.942-1.499 5.012-1.498 2.07-3.296 2.942 5.34 2.506 5.34 9.043zM39.552 15.145h8.227q4.195 0 4.195-4.195 0-4.194-4.195-4.194h-8.227v8.39zM52.52 27.24q0-2.615-.926-3.95-.927-1.335-3.324-1.335h-8.717v6.102q0 2.234 1.117 3.106 1.117.871 3.678.871h3.922q4.25 0 4.25-4.794zM29.2 47.31H35l-7.64 28.48h-4.64l-5.24-17.28-5.24 17.28H7.6L0 47.31h5.8l4.4 17.96 4.36-14.84q.72-3.32 3.04-3.32 1.16 0 1.76.86.6.86 1.08 2.46l4.32 14.84 4.44-17.96zm30.84 14.12l.04 3.08q-.16 2.92-.72 4.92-.56 2-2.2 3.64-2.72 2.72-7.92 2.72-6.12 0-8.4-1.62-2.28-1.62-2.28-5.86v-21h11.08q4.8 0 7.52 2.72 2.2 2.2 2.6 5.36.28 2.24.28 6.04zm-6.76 7.64q.76-.92.98-2.54.22-1.62.22-5.06 0-3.44-.22-4.98-.22-1.54-.98-2.46-1.44-1.76-4.16-1.76h-5v15.76q0 1.6 1.08 2.2 1.08.6 3.86.6t4.22-1.76z"/><svg width=".189" height=".103" viewBox="0 0 0.189 0.103" color="#000" transform="matrix(400.45014 0 0 400.45014 75.08 17.281)"><path d="M.12.086L.1.07.113.063l.011.01C.141.089.18.103.18.053.18 0 .14.016.124.032L.07.083C.046.106 0 .116 0 .051S.046-.006.07.017l.018.016L.076.04.066.03C.047.014.01 0 .01.05c0 .052.038.036.055.02L.12.02c.024-.023.07-.033.07.032S.144.11.12.086z" fill="currentColor"/></svg></svg>