<?xml version="1.0" standalone="no"?>
<svg xmlns="http://www.w3.org/2000/svg" width="150.8691931097008" height="75.78919310970082" viewBox="0 0 150.8691931097008 75.78919310970082"><path fill="#3b82f6" fill-rule="nonzero" d="M12.04 0L17.60 0L17.60 18.32Q17.60 24.04 15.24 26.38Q12.88 28.72 8.40 28.72L8.40 28.72Q5.52 28.72 3.58 27.96Q1.64 27.20 0 25.56L0 25.56L3.12 22.16Q3.80 22.84 5.18 23.30Q6.56 23.76 8.34 23.76Q10.12 23.76 11.08 22.90Q12.04 22.04 12.04 19.68L12.04 19.68L12.04 0ZM44.12 20.28L44.12 20.28Q44.12 24.24 41.98 26.36Q39.84 28.48 36 28.48L36 28.48L32.16 28.48Q27.44 28.48 25.46 26.84Q23.48 25.20 23.48 21.16L23.48 21.16L23.48 0L35.52 0Q39.60 0 41.66 2.04Q43.72 4.08 43.72 7.80L43.72 7.80Q43.72 9.96 42.62 11.48Q41.52 13 40.20 13.64L40.20 13.64Q44.12 15.48 44.12 20.28ZM29.04 11.12L35.08 11.12Q38.16 11.12 38.16 8.04Q38.16 4.96 35.08 4.96L35.08 4.96L29.04 4.96L29.04 11.12ZM38.56 20L38.56 20Q38.56 18.08 37.88 17.10Q37.20 16.12 35.44 16.12L35.44 16.12L29.04 16.12L29.04 20.60Q29.04 22.24 29.86 22.88Q30.68 23.52 32.56 23.52L32.56 23.52L35.44 23.52Q38.56 23.52 38.56 20Z" transform="translate(0 0) scale(1.362)"></path><path fill="#3b82f6" fill-rule="nonzero" d="M29.20 0.20L35 0.20L27.36 28.68L22.72 28.68L17.48 11.40L12.24 28.68L7.60 28.68L0 0.20L5.80 0.20L10.20 18.16L14.56 3.32Q15.28 0 17.60 0L17.60 0Q18.76 0 19.36 0.86Q19.96 1.72 20.44 3.32L20.44 3.32L24.76 18.16L29.20 0.20ZM60.04 14.32L60.04 14.32L60.08 17.40Q59.92 20.32 59.36 22.32Q58.80 24.32 57.16 25.96L57.16 25.96Q54.44 28.68 49.24 28.68L49.24 28.68Q43.12 28.68 40.84 27.06Q38.56 25.44 38.56 21.20L38.56 21.20L38.56 0.20L49.64 0.20Q54.44 0.20 57.16 2.92L57.16 2.92Q59.36 5.12 59.76 8.28L59.76 8.28Q60.04 10.52 60.04 14.32ZM53.28 21.96Q54.04 21.04 54.26 19.42Q54.48 17.80 54.48 14.36Q54.48 10.92 54.26 9.38Q54.04 7.84 53.28 6.92L53.28 6.92Q51.84 5.16 49.12 5.16L49.12 5.16L44.12 5.16L44.12 20.92Q44.12 22.52 45.20 23.12Q46.28 23.72 49.06 23.72Q51.84 23.72 53.28 21.96L53.28 21.96Z" transform="translate(0 47.11) scale(1)"></path><g fill="#000000" color="#000000" transform="translate(75.08 17.281) scale(400.450138)"><svg width="0.18926" height="0.102953" x="0.0" y="0.0" viewBox="0 0 0.18926 0.102953"><defs><style type="text/css">
   
    .fil0 {fill:currentColor;fill-rule:nonzero}
   
  </style></defs><g><path class="fil0" d="M0.119165 0.0863425l-0.0180354 -0.0167874 0.0119252 -0.00677559 0.0108976 0.0101417c0.0174016,0.0161929 0.0555787,0.0309134 0.0557008,-0.0204724 0.000122047,-0.0516929 -0.0386102,-0.0354567 -0.0556811,-0.0195669 -0.0179528,0.016874 -0.0358661,0.0338543 -0.0538622,0.0506102 -0.0241732,0.0225 -0.0702638,0.0322638 -0.0701102,-0.0329843 0.000153543,-0.0647874 0.0455787,-0.0567047 0.0700945,-0.0338937l0.0180354 0.0167835 -0.0119291 0.00677559 -0.0108937 -0.0101378c-0.0174016,-0.0161969 -0.0555787,-0.0309173 -0.0557008,0.0204724 -0.000122047,0.051689 0.0386102,0.0354528 0.0556811,0.019563l0.0538622 -0.0506102c0.0241732,-0.0224961 0.0702638,-0.0322638 0.0701102,0.0329882 -0.000153543,0.0647835 -0.0455827,0.0567047 -0.0700945,0.0338937z"></path></g></svg></g></svg>